<mxfile host="app.diagrams.net" agent="Mozilla/5.0 (Windows NT 10.0; Win64; x64) AppleWebKit/537.36 (KHTML, like Gecko) Chrome/130.0.0.0 Safari/537.36" version="24.8.3">
  <diagram name="Page-1" id="imX2sskDe2KIT6MY37qd">
    <mxGraphModel dx="1148" dy="846" grid="0" gridSize="10" guides="1" tooltips="1" connect="1" arrows="1" fold="1" page="0" pageScale="1" pageWidth="850" pageHeight="1100" math="0" shadow="0">
      <root>
        <mxCell id="0" />
        <mxCell id="1" parent="0" />
        <mxCell id="4MWl-TuwdbX3P6T89EpP-3" value="" style="edgeStyle=none;curved=1;rounded=0;orthogonalLoop=1;jettySize=auto;html=1;fontSize=12;startSize=8;endSize=8;" edge="1" parent="1" source="4MWl-TuwdbX3P6T89EpP-1" target="4MWl-TuwdbX3P6T89EpP-2">
          <mxGeometry relative="1" as="geometry" />
        </mxCell>
        <mxCell id="4MWl-TuwdbX3P6T89EpP-1" value="Start" style="ellipse;whiteSpace=wrap;html=1;" vertex="1" parent="1">
          <mxGeometry x="-471" y="-359" width="104" height="46" as="geometry" />
        </mxCell>
        <mxCell id="4MWl-TuwdbX3P6T89EpP-5" value="" style="edgeStyle=none;curved=1;rounded=0;orthogonalLoop=1;jettySize=auto;html=1;fontSize=12;startSize=8;endSize=8;" edge="1" parent="1" source="4MWl-TuwdbX3P6T89EpP-2" target="4MWl-TuwdbX3P6T89EpP-4">
          <mxGeometry relative="1" as="geometry" />
        </mxCell>
        <mxCell id="4MWl-TuwdbX3P6T89EpP-2" value="str: input_str, stack&lt;div&gt;stack_rev = &#39; &#39;&lt;/div&gt;" style="shape=hexagon;perimeter=hexagonPerimeter2;whiteSpace=wrap;html=1;fixedSize=1;" vertex="1" parent="1">
          <mxGeometry x="-479" y="-278" width="120" height="80" as="geometry" />
        </mxCell>
        <mxCell id="4MWl-TuwdbX3P6T89EpP-7" value="" style="edgeStyle=none;curved=1;rounded=0;orthogonalLoop=1;jettySize=auto;html=1;fontSize=12;startSize=8;endSize=8;" edge="1" parent="1" source="4MWl-TuwdbX3P6T89EpP-4" target="4MWl-TuwdbX3P6T89EpP-6">
          <mxGeometry relative="1" as="geometry" />
        </mxCell>
        <mxCell id="4MWl-TuwdbX3P6T89EpP-4" value="Input&lt;div&gt;input_str&lt;/div&gt;" style="shape=parallelogram;perimeter=parallelogramPerimeter;whiteSpace=wrap;html=1;fixedSize=1;" vertex="1" parent="1">
          <mxGeometry x="-479" y="-158" width="120" height="60" as="geometry" />
        </mxCell>
        <mxCell id="4MWl-TuwdbX3P6T89EpP-9" value="" style="edgeStyle=none;curved=1;rounded=0;orthogonalLoop=1;jettySize=auto;html=1;fontSize=12;startSize=8;endSize=8;" edge="1" parent="1" source="4MWl-TuwdbX3P6T89EpP-6" target="4MWl-TuwdbX3P6T89EpP-8">
          <mxGeometry relative="1" as="geometry" />
        </mxCell>
        <mxCell id="4MWl-TuwdbX3P6T89EpP-6" value="stack = input_str.split()[::1]" style="rounded=0;whiteSpace=wrap;html=1;" vertex="1" parent="1">
          <mxGeometry x="-479" y="-62" width="120" height="60" as="geometry" />
        </mxCell>
        <mxCell id="4MWl-TuwdbX3P6T89EpP-11" value="" style="edgeStyle=none;curved=1;rounded=0;orthogonalLoop=1;jettySize=auto;html=1;fontSize=12;startSize=8;endSize=8;" edge="1" parent="1" source="4MWl-TuwdbX3P6T89EpP-8" target="4MWl-TuwdbX3P6T89EpP-10">
          <mxGeometry relative="1" as="geometry" />
        </mxCell>
        <mxCell id="4MWl-TuwdbX3P6T89EpP-16" value="" style="edgeStyle=none;curved=1;rounded=0;orthogonalLoop=1;jettySize=auto;html=1;fontSize=12;startSize=8;endSize=8;" edge="1" parent="1" source="4MWl-TuwdbX3P6T89EpP-8" target="4MWl-TuwdbX3P6T89EpP-15">
          <mxGeometry relative="1" as="geometry" />
        </mxCell>
        <mxCell id="4MWl-TuwdbX3P6T89EpP-8" value="len(stack) != 0" style="rhombus;whiteSpace=wrap;html=1;" vertex="1" parent="1">
          <mxGeometry x="-459" y="34" width="80" height="80" as="geometry" />
        </mxCell>
        <mxCell id="4MWl-TuwdbX3P6T89EpP-13" value="" style="edgeStyle=none;curved=1;rounded=0;orthogonalLoop=1;jettySize=auto;html=1;fontSize=12;startSize=8;endSize=8;" edge="1" parent="1" source="4MWl-TuwdbX3P6T89EpP-10" target="4MWl-TuwdbX3P6T89EpP-12">
          <mxGeometry relative="1" as="geometry" />
        </mxCell>
        <mxCell id="4MWl-TuwdbX3P6T89EpP-10" value="Pop from stack" style="rounded=0;whiteSpace=wrap;html=1;" vertex="1" parent="1">
          <mxGeometry x="-477" y="146" width="120" height="60" as="geometry" />
        </mxCell>
        <mxCell id="4MWl-TuwdbX3P6T89EpP-18" style="edgeStyle=none;curved=1;rounded=0;orthogonalLoop=1;jettySize=auto;html=1;entryX=0;entryY=0.5;entryDx=0;entryDy=0;fontSize=12;startSize=8;endSize=8;" edge="1" parent="1" source="4MWl-TuwdbX3P6T89EpP-12" target="4MWl-TuwdbX3P6T89EpP-8">
          <mxGeometry relative="1" as="geometry">
            <Array as="points">
              <mxPoint x="-518" y="255" />
              <mxPoint x="-547" y="237" />
              <mxPoint x="-538" y="92" />
            </Array>
          </mxGeometry>
        </mxCell>
        <mxCell id="4MWl-TuwdbX3P6T89EpP-12" value="&lt;div&gt;Append to stack_rev + &#39; &#39;&lt;/div&gt;" style="rounded=0;whiteSpace=wrap;html=1;" vertex="1" parent="1">
          <mxGeometry x="-477" y="232" width="120" height="60" as="geometry" />
        </mxCell>
        <mxCell id="4MWl-TuwdbX3P6T89EpP-14" value="Y" style="text;strokeColor=none;fillColor=none;html=1;align=center;verticalAlign=middle;whiteSpace=wrap;rounded=0;fontSize=16;" vertex="1" parent="1">
          <mxGeometry x="-427" y="114" width="60" height="30" as="geometry" />
        </mxCell>
        <mxCell id="4MWl-TuwdbX3P6T89EpP-20" value="" style="edgeStyle=none;curved=1;rounded=0;orthogonalLoop=1;jettySize=auto;html=1;fontSize=12;startSize=8;endSize=8;" edge="1" parent="1" source="4MWl-TuwdbX3P6T89EpP-15" target="4MWl-TuwdbX3P6T89EpP-19">
          <mxGeometry relative="1" as="geometry" />
        </mxCell>
        <mxCell id="4MWl-TuwdbX3P6T89EpP-15" value="Print stack_rev" style="shape=parallelogram;perimeter=parallelogramPerimeter;whiteSpace=wrap;html=1;fixedSize=1;" vertex="1" parent="1">
          <mxGeometry x="-328" y="44" width="120" height="60" as="geometry" />
        </mxCell>
        <mxCell id="4MWl-TuwdbX3P6T89EpP-19" value="End" style="ellipse;whiteSpace=wrap;html=1;" vertex="1" parent="1">
          <mxGeometry x="-153" y="44" width="123" height="54" as="geometry" />
        </mxCell>
      </root>
    </mxGraphModel>
  </diagram>
</mxfile>
